<mxfile host="app.diagrams.net" agent="Mozilla/5.0 (X11; Linux x86_64) AppleWebKit/537.36 (KHTML, like Gecko) Chrome/133.0.0.0 Safari/537.36" version="26.1.0">
  <diagram name="Page-1" id="ilGjdaZJq8qxR4VXdF9Q">
    <mxGraphModel dx="823" dy="527" grid="1" gridSize="10" guides="1" tooltips="1" connect="1" arrows="1" fold="1" page="1" pageScale="1" pageWidth="827" pageHeight="1169" math="0" shadow="0">
      <root>
        <mxCell id="0" />
        <mxCell id="1" parent="0" />
        <mxCell id="ekB-ID3I0z-oZot5Pa37-24" style="edgeStyle=orthogonalEdgeStyle;rounded=0;orthogonalLoop=1;jettySize=auto;html=1;exitX=0;exitY=0.5;exitDx=0;exitDy=0;entryX=1;entryY=0.5;entryDx=0;entryDy=0;" edge="1" parent="1" source="ekB-ID3I0z-oZot5Pa37-1" target="ekB-ID3I0z-oZot5Pa37-19">
          <mxGeometry relative="1" as="geometry" />
        </mxCell>
        <mxCell id="ekB-ID3I0z-oZot5Pa37-1" value="Essence" style="ellipse;whiteSpace=wrap;html=1;aspect=fixed;" vertex="1" parent="1">
          <mxGeometry x="570" y="130" width="60" height="60" as="geometry" />
        </mxCell>
        <mxCell id="ekB-ID3I0z-oZot5Pa37-12" style="edgeStyle=orthogonalEdgeStyle;rounded=0;orthogonalLoop=1;jettySize=auto;html=1;exitX=0;exitY=0.5;exitDx=0;exitDy=0;entryX=0.5;entryY=0;entryDx=0;entryDy=0;" edge="1" parent="1" source="ekB-ID3I0z-oZot5Pa37-7" target="ekB-ID3I0z-oZot5Pa37-11">
          <mxGeometry relative="1" as="geometry" />
        </mxCell>
        <mxCell id="ekB-ID3I0z-oZot5Pa37-18" value="False" style="edgeLabel;html=1;align=center;verticalAlign=middle;resizable=0;points=[];" vertex="1" connectable="0" parent="ekB-ID3I0z-oZot5Pa37-12">
          <mxGeometry x="-0.3868" y="1" relative="1" as="geometry">
            <mxPoint y="-2" as="offset" />
          </mxGeometry>
        </mxCell>
        <mxCell id="ekB-ID3I0z-oZot5Pa37-13" style="edgeStyle=orthogonalEdgeStyle;rounded=0;orthogonalLoop=1;jettySize=auto;html=1;exitX=1;exitY=0.5;exitDx=0;exitDy=0;entryX=0.5;entryY=0;entryDx=0;entryDy=0;" edge="1" parent="1" source="ekB-ID3I0z-oZot5Pa37-7" target="ekB-ID3I0z-oZot5Pa37-10">
          <mxGeometry relative="1" as="geometry" />
        </mxCell>
        <mxCell id="ekB-ID3I0z-oZot5Pa37-17" value="True" style="edgeLabel;html=1;align=center;verticalAlign=middle;resizable=0;points=[];" vertex="1" connectable="0" parent="ekB-ID3I0z-oZot5Pa37-13">
          <mxGeometry x="-0.3453" relative="1" as="geometry">
            <mxPoint as="offset" />
          </mxGeometry>
        </mxCell>
        <mxCell id="ekB-ID3I0z-oZot5Pa37-7" value="While Essence &amp;lt; 12000" style="rounded=1;whiteSpace=wrap;html=1;" vertex="1" parent="1">
          <mxGeometry x="370" y="270" width="140" height="20" as="geometry" />
        </mxCell>
        <mxCell id="ekB-ID3I0z-oZot5Pa37-10" value="Continue Exporting&lt;div&gt;Lower Tier&lt;/div&gt;" style="shape=process;whiteSpace=wrap;html=1;backgroundOutline=1;" vertex="1" parent="1">
          <mxGeometry x="520" y="320" width="120" height="60" as="geometry" />
        </mxCell>
        <mxCell id="ekB-ID3I0z-oZot5Pa37-11" value="Stop Exporting&lt;div&gt;Lower Tier&lt;/div&gt;" style="shape=process;whiteSpace=wrap;html=1;backgroundOutline=1;" vertex="1" parent="1">
          <mxGeometry x="240" y="320" width="120" height="60" as="geometry" />
        </mxCell>
        <mxCell id="ekB-ID3I0z-oZot5Pa37-22" style="edgeStyle=orthogonalEdgeStyle;rounded=0;orthogonalLoop=1;jettySize=auto;html=1;exitX=0.5;exitY=1;exitDx=0;exitDy=0;" edge="1" parent="1" source="ekB-ID3I0z-oZot5Pa37-19" target="ekB-ID3I0z-oZot5Pa37-7">
          <mxGeometry relative="1" as="geometry" />
        </mxCell>
        <mxCell id="ekB-ID3I0z-oZot5Pa37-23" value="True" style="edgeLabel;html=1;align=center;verticalAlign=middle;resizable=0;points=[];" vertex="1" connectable="0" parent="ekB-ID3I0z-oZot5Pa37-22">
          <mxGeometry x="-0.471" y="1" relative="1" as="geometry">
            <mxPoint as="offset" />
          </mxGeometry>
        </mxCell>
        <mxCell id="ekB-ID3I0z-oZot5Pa37-19" value="Essence != Inferium" style="rounded=1;whiteSpace=wrap;html=1;" vertex="1" parent="1">
          <mxGeometry x="370" y="150" width="140" height="20" as="geometry" />
        </mxCell>
      </root>
    </mxGraphModel>
  </diagram>
</mxfile>
